<svg width="256" height="175" viewBox="0 0 256 175" fill="none" xmlns="http://www.w3.org/2000/svg">
<g clip-path="url(#clip0)">
<path d="M1.69593 174.03C1.4832 174.06 1.26632 174.041 1.06244 173.973C0.858571 173.905 0.673322 173.79 0.521368 173.639C0.369413 173.487 0.254896 173.301 0.186956 173.097C0.119016 172.894 0.0995252 172.677 0.129949 172.464V150.321C0.0994828 150.108 0.118954 149.891 0.186895 149.688C0.254836 149.484 0.369325 149.298 0.521307 149.147C0.673288 148.995 0.85862 148.88 1.06251 148.812C1.26639 148.745 1.48325 148.725 1.69593 148.756H10.4179C11.3701 148.645 12.3352 148.75 13.2407 149.065C14.1463 149.38 14.9689 149.895 15.6468 150.573C16.3247 151.251 16.8403 152.074 17.155 152.979C17.4697 153.885 17.5753 154.85 17.4639 155.802V156.92C17.575 157.872 17.4692 158.837 17.1543 159.742C16.8395 160.647 16.3238 161.47 15.6459 162.147C14.9681 162.825 14.1456 163.34 13.2402 163.655C12.3348 163.97 11.3699 164.075 10.4179 163.964H3.26191V172.464C3.29212 172.677 3.27243 172.893 3.20441 173.097C3.1364 173.301 3.02197 173.486 2.87006 173.638C2.71816 173.79 2.53294 173.904 2.32917 173.972C2.12539 174.04 1.90862 174.06 1.69593 174.03V174.03ZM3.26191 160.83H10.4179C10.956 160.944 11.5141 160.923 12.0416 160.767C12.5691 160.61 13.0492 160.325 13.4382 159.936C13.8273 159.547 14.1129 159.067 14.2692 158.54C14.4254 158.012 14.4474 157.454 14.333 156.916V155.798C14.4452 155.26 14.4217 154.703 14.2647 154.176C14.1077 153.65 13.822 153.171 13.4335 152.783C13.045 152.394 12.5659 152.109 12.0394 151.952C11.5129 151.795 10.9557 151.772 10.4179 151.884H3.26191V160.83Z" fill="white"/>
<path d="M18.8049 173.881C18.5922 173.833 18.3937 173.736 18.2256 173.597C18.0575 173.459 17.9245 173.282 17.8374 173.082C17.7503 172.882 17.7115 172.665 17.7243 172.447C17.7371 172.23 17.801 172.018 17.9109 171.83L26.7828 149.986C26.9101 149.624 27.1474 149.311 27.4616 149.09C27.7758 148.869 28.151 148.753 28.5348 148.756H28.6099C28.9794 148.756 29.3388 148.876 29.6345 149.098C29.9301 149.32 30.146 149.631 30.2499 149.986L39.2709 171.83C39.3547 172.022 39.3993 172.229 39.4022 172.438C39.405 172.647 39.366 172.855 39.2873 173.049C39.2087 173.243 39.0921 173.42 38.9444 173.568C38.7966 173.717 38.6207 173.834 38.4269 173.914C38.2332 173.993 38.0255 174.033 37.8161 174.031C37.6067 174.029 37.3998 173.986 37.2075 173.903C37.0152 173.82 36.8415 173.699 36.6964 173.548C36.5514 173.397 36.4379 173.218 36.3629 173.023L34.3498 168.14H22.7379L20.8179 173.023C20.7697 173.231 20.6731 173.424 20.5361 173.587C20.399 173.751 20.2254 173.88 20.0292 173.963C19.8331 174.047 19.62 174.083 19.4072 174.069C19.1945 174.054 18.9881 173.99 18.8049 173.881V173.881ZM23.9678 165.009H33.0679L28.4269 153.709L23.9678 165.009Z" fill="white"/>
<path d="M49.2809 174.03C47.5314 174.132 45.7938 173.682 44.3139 172.744C43.6949 172.266 43.1786 171.668 42.796 170.985C42.4133 170.303 42.1722 169.551 42.0869 168.774C42.0469 168.556 42.0562 168.333 42.1142 168.12C42.1722 167.907 42.2773 167.71 42.4219 167.543C42.5833 167.398 42.772 167.288 42.9769 167.217C43.1818 167.147 43.3988 167.119 43.6149 167.134C43.8212 167.115 44.029 167.139 44.2259 167.203C44.4228 167.267 44.6048 167.37 44.7609 167.507C45.0387 167.833 45.2109 168.235 45.2549 168.662C45.3067 169.027 45.4418 169.376 45.6499 169.682C45.8579 169.987 46.1333 170.241 46.4548 170.423C47.3484 170.792 48.3137 170.954 49.2789 170.899H54.6469C55.8078 171.03 56.9759 170.72 57.9189 170.031C58.6307 169.449 59.132 168.65 59.3459 167.756C59.5598 166.862 59.4745 165.922 59.103 165.081C58.7316 164.24 58.0945 163.545 57.2896 163.101C56.4846 162.657 55.5562 162.489 54.6469 162.624H50.0249C47.6769 162.624 45.9342 162.049 44.7969 160.899C44.1809 160.18 43.713 159.346 43.4202 158.445C43.1275 157.545 43.0155 156.595 43.0909 155.652C43.0909 153.318 43.6532 151.585 44.7778 150.452C45.9025 149.318 47.6392 148.752 49.9879 148.752H54.4229C56.0618 148.66 57.6883 149.083 59.0739 149.964C59.6579 150.41 60.1473 150.967 60.5137 151.604C60.8801 152.241 61.1161 152.945 61.2079 153.674C61.2576 153.886 61.2563 154.108 61.2042 154.32C61.152 154.532 61.0505 154.729 60.9078 154.895C60.7419 155.044 60.5473 155.158 60.3358 155.23C60.1244 155.302 59.9006 155.331 59.6779 155.314C59.4745 155.329 59.2702 155.302 59.0777 155.235C58.8853 155.168 58.709 155.061 58.5599 154.922C58.2842 154.602 58.1146 154.205 58.0748 153.786C58.0095 153.466 57.8735 153.166 57.6767 152.907C57.4799 152.647 57.2275 152.435 56.9379 152.286C56.1365 151.976 55.2787 151.84 54.4208 151.886H49.9859C48.9214 151.757 47.8481 152.04 46.9859 152.678C46.3763 153.542 46.1045 154.599 46.2219 155.65C46.1064 156.718 46.3844 157.792 47.0039 158.67C47.8666 159.323 48.9492 159.617 50.0239 159.489H54.6459C57.0939 159.489 58.9176 160.085 60.1169 161.279C61.3162 162.472 61.9162 164.311 61.9169 166.796C61.9169 169.268 61.3202 171.092 60.1268 172.267C58.9335 173.441 57.1069 174.028 54.6469 174.028L49.2809 174.03Z" fill="white"/>
<path d="M69.5949 174.03C69.3821 174.06 69.1652 174.041 68.9614 173.973C68.7575 173.905 68.5722 173.79 68.4203 173.638C68.2683 173.486 68.1539 173.301 68.0859 173.097C68.018 172.893 67.9985 172.677 68.0289 172.464V150.321C67.9984 150.108 68.0179 149.891 68.0858 149.687C68.1538 149.484 68.2683 149.298 68.4203 149.146C68.5723 148.995 68.7575 148.88 68.9614 148.812C69.1653 148.745 69.3822 148.725 69.5949 148.756H82.9808C83.3962 148.756 83.7945 148.921 84.0882 149.214C84.3819 149.508 84.5469 149.906 84.5469 150.322C84.5469 150.737 84.3819 151.135 84.0882 151.429C83.7945 151.723 83.3962 151.888 82.9808 151.888H71.1609V159.716H78.5809C78.9961 159.716 79.3942 159.881 79.6878 160.174C79.9814 160.468 80.1464 160.866 80.1464 161.281C80.1464 161.697 79.9814 162.095 79.6878 162.388C79.3942 162.682 78.9961 162.847 78.5809 162.847H71.1609V170.899H82.9808C83.1898 170.894 83.3976 170.93 83.5922 171.006C83.7867 171.083 83.9641 171.197 84.1137 171.343C84.2633 171.489 84.3822 171.663 84.4634 171.856C84.5446 172.048 84.5864 172.255 84.5864 172.464C84.5864 172.673 84.5446 172.88 84.4634 173.073C84.3822 173.265 84.2633 173.44 84.1137 173.586C83.9641 173.731 83.7867 173.846 83.5922 173.922C83.3976 173.999 83.1898 174.035 82.9808 174.03H69.5949Z" fill="white"/>
<path d="M96.472 174.03C93.6267 174.03 91.5237 173.349 90.163 171.988C88.8024 170.627 88.1221 168.524 88.1221 165.679V157.069C88.1221 154.198 88.8054 152.088 90.1721 150.741C91.5387 149.394 93.6387 148.732 96.472 148.756H100.946C103.804 148.756 105.91 149.433 107.264 150.788C108.618 152.143 109.295 154.249 109.296 157.106V165.679C109.296 168.526 108.619 170.629 107.264 171.988C105.909 173.347 103.803 174.027 100.946 174.03H96.472ZM96.472 170.899H100.946C102.011 170.942 103.073 170.781 104.077 170.423C104.441 170.278 104.771 170.06 105.049 169.783C105.326 169.505 105.544 169.175 105.689 168.811C106.046 167.807 106.208 166.744 106.164 165.679V157.106C106.207 156.048 106.045 154.991 105.689 153.994C105.543 153.629 105.325 153.298 105.048 153.019C104.771 152.741 104.441 152.521 104.077 152.372C103.075 152.008 102.011 151.844 100.946 151.888H96.472C95.4157 151.835 94.359 151.986 93.36 152.334C92.9957 152.477 92.6641 152.693 92.3853 152.968C92.1065 153.243 91.8864 153.572 91.738 153.934C91.3744 154.937 91.21 156 91.254 157.066V165.676C91.2104 166.741 91.3717 167.804 91.7291 168.808C91.8745 169.172 92.0924 169.502 92.3695 169.78C92.6466 170.057 92.9772 170.275 93.3411 170.42C94.3445 170.779 95.4073 170.941 96.472 170.899V170.899Z" fill="white"/>
<path d="M133.823 174.03C130.978 174.03 128.875 173.349 127.514 171.988C126.153 170.627 125.473 168.524 125.474 165.679V157.106C125.474 154.239 126.151 152.124 127.505 150.759C128.859 149.394 130.953 148.728 133.786 148.759H138.297C140.191 148.632 142.074 149.14 143.646 150.204C144.3 150.773 144.829 151.472 145.198 152.256C145.567 153.041 145.768 153.894 145.789 154.761C145.839 154.969 145.837 155.186 145.785 155.394C145.733 155.601 145.631 155.793 145.489 155.953C145.327 156.098 145.139 156.209 144.933 156.279C144.728 156.349 144.511 156.378 144.295 156.363C143.352 156.363 142.806 155.841 142.655 154.798C142.655 154.347 142.547 153.902 142.341 153.5C142.136 153.098 141.838 152.751 141.472 152.487C140.481 152.019 139.387 151.813 138.294 151.887H133.783C132.73 151.834 131.678 151.985 130.683 152.333C130.32 152.478 129.991 152.697 129.716 152.974C129.441 153.251 129.225 153.582 129.083 153.946C128.725 154.959 128.564 156.031 128.608 157.105V165.678C128.564 166.743 128.726 167.806 129.083 168.81C129.228 169.174 129.446 169.504 129.723 169.781C130 170.059 130.331 170.277 130.695 170.422C131.698 170.779 132.761 170.941 133.826 170.898H138.3C139.219 170.934 140.138 170.804 141.012 170.516C141.323 170.401 141.606 170.221 141.843 169.988C142.079 169.754 142.263 169.474 142.382 169.164C142.679 168.282 142.812 167.354 142.773 166.424V164.672L139.865 164.636C139.449 164.636 139.051 164.471 138.757 164.177C138.463 163.883 138.298 163.485 138.298 163.069C138.298 162.654 138.463 162.256 138.757 161.962C139.051 161.668 139.449 161.503 139.865 161.503L144.339 161.541C144.552 161.51 144.768 161.53 144.972 161.598C145.176 161.666 145.361 161.78 145.513 161.932C145.665 162.084 145.779 162.27 145.847 162.474C145.915 162.677 145.934 162.894 145.904 163.107V166.424C145.904 169.071 145.289 171.001 144.06 172.212C142.831 173.423 140.911 174.029 138.3 174.029L133.823 174.03Z" fill="white"/>
<path d="M153.227 174.03C153.013 174.065 152.795 174.048 152.589 173.982C152.383 173.916 152.196 173.801 152.043 173.648C151.89 173.495 151.775 173.308 151.709 173.102C151.642 172.896 151.626 172.677 151.661 172.464V150.359C151.642 150.145 151.665 149.929 151.731 149.724C151.796 149.519 151.902 149.329 152.042 149.166C152.26 148.912 152.554 148.735 152.881 148.661C153.207 148.586 153.549 148.618 153.856 148.751C154.163 148.884 154.419 149.112 154.588 149.401C154.756 149.69 154.828 150.026 154.792 150.359V172.464C154.827 172.892 154.693 173.317 154.419 173.648C154.256 173.788 154.066 173.894 153.861 173.959C153.657 174.025 153.441 174.049 153.227 174.03V174.03Z" fill="white"/>
<path d="M169.255 174.03C166.409 174.03 164.306 173.349 162.946 171.988C161.586 170.627 160.905 168.524 160.905 165.679V157.106C160.905 154.239 161.582 152.124 162.936 150.759C164.29 149.394 166.383 148.728 169.217 148.759H173.728C175.622 148.632 177.504 149.14 179.077 150.204C179.731 150.773 180.26 151.472 180.629 152.256C180.998 153.041 181.2 153.894 181.221 154.761C181.27 154.969 181.269 155.186 181.217 155.394C181.165 155.601 181.063 155.793 180.921 155.953C180.76 156.098 180.571 156.209 180.366 156.279C180.162 156.35 179.945 156.378 179.729 156.363C178.783 156.363 178.237 155.841 178.089 154.798C178.088 154.347 177.98 153.902 177.775 153.5C177.569 153.098 177.271 152.751 176.905 152.487C175.914 152.019 174.82 151.813 173.727 151.887H169.216C168.163 151.834 167.111 151.985 166.116 152.333C165.753 152.478 165.424 152.697 165.149 152.974C164.874 153.251 164.658 153.582 164.516 153.946C164.158 154.959 163.997 156.031 164.041 157.105V165.678C163.997 166.743 164.158 167.806 164.516 168.81C164.661 169.174 164.879 169.504 165.157 169.782C165.434 170.059 165.765 170.277 166.129 170.422C167.132 170.78 168.195 170.941 169.26 170.898H173.733C174.652 170.933 175.571 170.804 176.445 170.516C176.756 170.401 177.039 170.221 177.275 169.987C177.511 169.754 177.695 169.474 177.814 169.164C178.112 168.283 178.245 167.354 178.207 166.424V164.672L175.299 164.636C174.883 164.636 174.485 164.471 174.191 164.177C173.897 163.883 173.732 163.485 173.732 163.069C173.732 162.654 173.897 162.256 174.191 161.962C174.485 161.668 174.883 161.503 175.299 161.503L179.771 161.541C179.984 161.51 180.201 161.53 180.405 161.598C180.609 161.665 180.794 161.78 180.946 161.932C181.098 162.084 181.213 162.269 181.281 162.473C181.349 162.677 181.368 162.894 181.338 163.107V166.424C181.338 169.071 180.722 171.001 179.492 172.212C178.261 173.423 176.341 174.029 173.733 174.029L169.255 174.03Z" fill="white"/>
<path d="M188.657 174.03C188.444 174.06 188.227 174.041 188.023 173.973C187.82 173.905 187.634 173.79 187.482 173.638C187.33 173.486 187.216 173.301 187.148 173.097C187.08 172.893 187.06 172.677 187.091 172.464V150.321C187.06 150.108 187.08 149.891 187.148 149.687C187.216 149.484 187.33 149.298 187.482 149.146C187.634 148.995 187.82 148.88 188.023 148.812C188.227 148.745 188.444 148.725 188.657 148.756H202.04C202.455 148.756 202.854 148.921 203.147 149.214C203.441 149.508 203.606 149.906 203.606 150.322C203.606 150.737 203.441 151.135 203.147 151.429C202.854 151.723 202.455 151.888 202.04 151.888H190.223V159.716H197.641C198.056 159.716 198.454 159.881 198.748 160.174C199.041 160.468 199.206 160.866 199.206 161.281C199.206 161.697 199.041 162.095 198.748 162.388C198.454 162.682 198.056 162.847 197.641 162.847H190.223V170.899H202.04C202.448 170.909 202.836 171.079 203.122 171.371C203.407 171.664 203.566 172.056 203.566 172.464C203.566 172.873 203.407 173.265 203.122 173.558C202.836 173.85 202.448 174.019 202.04 174.03H188.657Z" fill="white"/>
<path d="M210.39 174.03C210.177 174.06 209.96 174.041 209.757 173.973C209.553 173.905 209.367 173.79 209.215 173.638C209.063 173.486 208.949 173.301 208.881 173.097C208.813 172.893 208.794 172.677 208.824 172.464V150.321C208.794 150.108 208.813 149.891 208.881 149.687C208.949 149.484 209.063 149.298 209.215 149.146C209.367 148.995 209.553 148.88 209.757 148.812C209.96 148.745 210.177 148.725 210.39 148.756C210.704 148.784 211.008 148.882 211.279 149.043C211.55 149.205 211.781 149.425 211.955 149.688L226.941 168.998H226.158V150.321C226.158 149.905 226.323 149.507 226.617 149.213C226.91 148.92 227.309 148.755 227.724 148.755C228.139 148.755 228.538 148.92 228.831 149.213C229.125 149.507 229.29 149.905 229.29 150.321V172.464C229.32 172.677 229.301 172.893 229.233 173.097C229.165 173.301 229.051 173.486 228.899 173.638C228.747 173.79 228.561 173.905 228.358 173.973C228.154 174.041 227.937 174.06 227.724 174.03C227.408 174.008 227.102 173.912 226.83 173.75C226.558 173.588 226.328 173.364 226.158 173.097L211.172 153.789H211.955V172.464C211.985 172.676 211.966 172.893 211.898 173.097C211.83 173.301 211.716 173.486 211.564 173.638C211.412 173.79 211.227 173.904 211.023 173.972C210.819 174.04 210.603 174.06 210.39 174.03Z" fill="white"/>
<path d="M235.104 173.881C234.891 173.834 234.692 173.737 234.523 173.599C234.354 173.46 234.221 173.284 234.133 173.084C234.045 172.884 234.006 172.666 234.018 172.448C234.031 172.231 234.094 172.019 234.204 171.83L243.077 149.986C243.204 149.624 243.441 149.311 243.755 149.09C244.07 148.869 244.445 148.753 244.829 148.756H244.903C245.272 148.756 245.632 148.876 245.928 149.098C246.223 149.32 246.439 149.631 246.543 149.986L255.565 171.83C255.712 172.213 255.703 172.639 255.541 173.016C255.378 173.394 255.074 173.692 254.694 173.848C254.314 174.004 253.888 174.005 253.507 173.851C253.127 173.696 252.821 173.399 252.657 173.023L250.644 168.14H239.037L237.117 173.023C237.068 173.231 236.972 173.424 236.835 173.587C236.698 173.75 236.524 173.879 236.328 173.962C236.132 174.046 235.919 174.082 235.706 174.068C235.493 174.054 235.287 173.99 235.104 173.881V173.881ZM240.266 165.009H249.366L244.726 153.709L240.266 165.009Z" fill="white"/>
<path d="M77.573 0C31.585 2.866 1.703 33.081 0 78.506V112.394H110.369C156.357 109.528 186.239 88.461 187.942 43.035H153.456C154.082 69.474 130.411 77.378 110.369 77.127L34.485 78.085C34.081 51.939 53.581 34.964 77.573 35.264H220.495V57.702H255.762V0H77.573Z" fill="white"/>
</g>
<defs>
<clipPath id="clip0">
<rect width="255.762" height="174.054" fill="white"/>
</clipPath>
</defs>
</svg>
