<svg xmlns="http://www.w3.org/2000/svg" width="209.266" height="142.409" viewBox="0 0 209.266 142.409"><g transform="translate(-131.867 -149.49)"><path d="M133.256,291.88a1.132,1.132,0,0,1-1.281-1.281V272.482a1.132,1.132,0,0,1,1.281-1.28h7.137a5.194,5.194,0,0,1,5.764,5.764v.915a5.194,5.194,0,0,1-5.764,5.764h-5.856V290.6A1.132,1.132,0,0,1,133.256,291.88Zm1.281-10.8h5.856a2.7,2.7,0,0,0,3.2-3.2v-.915a2.708,2.708,0,0,0-3.2-3.2h-5.856Z" fill="#fff"/><path d="M147.255,291.758a1.134,1.134,0,0,1-.732-1.678l7.259-17.872a1.5,1.5,0,0,1,1.434-1.006h.061a1.4,1.4,0,0,1,1.342,1.006L164,290.08a1.286,1.286,0,0,1-2.379.977l-1.647-4h-9.5l-1.571,4A1.109,1.109,0,0,1,147.255,291.758Zm4.224-7.258h7.442l-3.8-9.243Z" fill="#fff"/><path d="M172.189,291.88a6.839,6.839,0,0,1-4.064-1.052,4.763,4.763,0,0,1-1.823-3.248,1.2,1.2,0,0,1,.275-1.007,1.324,1.324,0,0,1,.976-.335,1.26,1.26,0,0,1,.937.3,1.736,1.736,0,0,1,.4.946,1.972,1.972,0,0,0,.983,1.44,5.249,5.249,0,0,0,2.311.389h4.392a3.81,3.81,0,0,0,2.676-.709,3.438,3.438,0,0,0-2.676-6.061H172.8a5.786,5.786,0,0,1-4.278-1.411,5.881,5.881,0,0,1-1.395-4.293,4.931,4.931,0,0,1,5.642-5.642H176.4a6.424,6.424,0,0,1,3.8.99,4.531,4.531,0,0,1,1.747,3.036,1.134,1.134,0,0,1-.244,1,1.35,1.35,0,0,1-1.007.344,1.211,1.211,0,0,1-.915-.321,1.67,1.67,0,0,1-.4-.93,1.784,1.784,0,0,0-.93-1.228,4.99,4.99,0,0,0-2.06-.328h-3.629a3.438,3.438,0,0,0-2.455.649,3.538,3.538,0,0,0-.625,2.432,3.605,3.605,0,0,0,.64,2.47,3.42,3.42,0,0,0,2.471.671h3.782a5.222,5.222,0,0,1,5.947,5.978,6.042,6.042,0,0,1-1.464,4.476,6.162,6.162,0,0,1-4.483,1.441Z" fill="#fff"/><path d="M188.811,291.88a1.133,1.133,0,0,1-1.282-1.281V272.482a1.132,1.132,0,0,1,1.282-1.28H199.76a1.281,1.281,0,1,1,0,2.561h-9.668v6.406h6.069a1.281,1.281,0,1,1,0,2.561h-6.069v6.588h9.668a1.281,1.281,0,1,1,0,2.562Z" fill="#fff"/><path d="M210.8,291.88q-3.493,0-5.162-1.67t-1.67-5.162V278q0-3.523,1.677-5.178T210.8,271.2h3.66q3.507,0,5.169,1.661t1.663,5.17v7.015q0,3.494-1.663,5.162t-5.169,1.67Zm0-2.562h3.66a6.8,6.8,0,0,0,2.561-.389,2.369,2.369,0,0,0,1.32-1.319,6.818,6.818,0,0,0,.388-2.562v-7.015a6.769,6.769,0,0,0-.388-2.546,2.4,2.4,0,0,0-1.32-1.327,6.7,6.7,0,0,0-2.561-.4H210.8a6.724,6.724,0,0,0-2.547.366,2.371,2.371,0,0,0-1.327,1.311,6.713,6.713,0,0,0-.4,2.563v7.045a6.8,6.8,0,0,0,.389,2.562,2.367,2.367,0,0,0,1.319,1.319A6.8,6.8,0,0,0,210.8,289.318Z" fill="#fff"/><path d="M241.362,291.88q-3.492,0-5.162-1.67t-1.67-5.162v-7.015q0-3.522,1.662-5.193t5.14-1.638h3.69a6.982,6.982,0,0,1,4.377,1.181,5.1,5.1,0,0,1,1.753,3.729,1.085,1.085,0,0,1-.243.975,1.321,1.321,0,0,1-.976.336q-1.159,0-1.342-1.281a2.342,2.342,0,0,0-.968-1.891,5.268,5.268,0,0,0-2.6-.488h-3.69a6.668,6.668,0,0,0-2.54.366,2.341,2.341,0,0,0-1.311,1.32,6.924,6.924,0,0,0-.389,2.584v7.015a6.816,6.816,0,0,0,.389,2.562,2.367,2.367,0,0,0,1.319,1.319,6.8,6.8,0,0,0,2.562.389h3.66a6.3,6.3,0,0,0,2.219-.312,1.909,1.909,0,0,0,1.121-1.106,6.191,6.191,0,0,0,.32-2.242v-1.434L246.3,284.2a1.282,1.282,0,0,1,0-2.563l3.66.031a1.132,1.132,0,0,1,1.281,1.281v2.714q0,3.248-1.509,4.736a6.5,6.5,0,0,1-4.713,1.486Z" fill="#fff"/><path d="M257.238,291.88a1.117,1.117,0,0,1-1.282-1.281V272.513a1.322,1.322,0,0,1,.313-.977,1.284,1.284,0,0,1,2.249.977V290.6a1.345,1.345,0,0,1-.3.969A1.317,1.317,0,0,1,257.238,291.88Z" fill="#fff"/><path d="M270.352,291.88q-3.493,0-5.162-1.67t-1.67-5.162v-7.015q0-3.522,1.662-5.193t5.139-1.638h3.69a6.98,6.98,0,0,1,4.377,1.181,5.1,5.1,0,0,1,1.754,3.729,1.086,1.086,0,0,1-.244.975,1.319,1.319,0,0,1-.975.336q-1.161,0-1.343-1.281a2.339,2.339,0,0,0-.968-1.891,5.268,5.268,0,0,0-2.6-.488h-3.69a6.662,6.662,0,0,0-2.539.366,2.345,2.345,0,0,0-1.312,1.32,6.927,6.927,0,0,0-.388,2.584v7.015a6.818,6.818,0,0,0,.388,2.562,2.372,2.372,0,0,0,1.32,1.319,6.8,6.8,0,0,0,2.562.389h3.659a6.311,6.311,0,0,0,2.22-.312,1.91,1.91,0,0,0,1.12-1.106,6.188,6.188,0,0,0,.321-2.242v-1.434l-2.379-.029a1.282,1.282,0,1,1,0-2.563l3.659.031a1.133,1.133,0,0,1,1.282,1.281v2.714q0,3.248-1.51,4.736a6.494,6.494,0,0,1-4.713,1.486Z" fill="#fff"/><path d="M286.227,291.88a1.133,1.133,0,0,1-1.282-1.281V272.482a1.132,1.132,0,0,1,1.282-1.28h10.949a1.281,1.281,0,1,1,0,2.561h-9.668v6.406h6.069a1.281,1.281,0,1,1,0,2.561h-6.069v6.588h9.668a1.281,1.281,0,0,1,0,2.562Z" fill="#fff"/><path d="M304.009,291.88a1.133,1.133,0,0,1-1.282-1.281V272.482a1.132,1.132,0,0,1,1.282-1.28,1.716,1.716,0,0,1,1.28.762l12.261,15.8h-.641V272.482a1.281,1.281,0,0,1,2.563,0V290.6a1.132,1.132,0,0,1-1.281,1.281,1.657,1.657,0,0,1-1.282-.763l-12.261-15.8h.641V290.6A1.132,1.132,0,0,1,304.009,291.88Z" fill="#fff"/><path d="M324.229,291.758a1.134,1.134,0,0,1-.732-1.678l7.259-17.872a1.5,1.5,0,0,1,1.434-1.006h.061a1.4,1.4,0,0,1,1.342,1.006l7.381,17.872a1.286,1.286,0,0,1-2.379.977l-1.647-4h-9.5l-1.571,4A1.109,1.109,0,0,1,324.229,291.758Zm4.224-7.258h7.442l-3.8-9.243Z" fill="#fff"/><path d="M195.338,149.49c-37.627,2.345-62.076,27.067-63.47,64.233V241.45h90.3c37.626-2.345,62.076-19.582,63.469-56.749H257.425c.512,21.632-18.855,28.1-35.253,27.894l-62.088.783c-.331-21.392,15.621-35.279,35.254-35.033H312.276V196.7h28.856V149.49Z" fill="#fff"/></g></svg>