<svg width="210" height="143" viewBox="0 0 210 143" fill="none" xmlns="http://www.w3.org/2000/svg">
<g clip-path="url(#clip0)">
<path d="M1.38812 142.39C1.2141 142.415 1.03667 142.399 0.869887 142.344C0.703105 142.288 0.551566 142.194 0.42726 142.07C0.302955 141.946 0.209298 141.794 0.153731 141.627C0.0981652 141.461 0.0822177 141.283 0.107131 141.109V122.992C0.0823902 122.818 0.0984697 122.641 0.154113 122.474C0.209756 122.308 0.303434 122.156 0.427718 122.032C0.552002 121.908 0.703483 121.814 0.870177 121.759C1.03687 121.703 1.2142 121.687 1.38812 121.712H8.52513C9.30414 121.621 10.0937 121.707 10.8347 121.964C11.5756 122.222 12.2486 122.643 12.8032 123.198C13.3579 123.753 13.7797 124.426 14.037 125.167C14.2944 125.908 14.3805 126.697 14.2891 127.476V128.391C14.3805 129.17 14.2944 129.96 14.037 130.701C13.7797 131.442 13.3579 132.115 12.8032 132.669C12.2486 133.224 11.5756 133.646 10.8347 133.903C10.0937 134.16 9.30414 134.247 8.52513 134.155H2.66913V141.11C2.69387 141.284 2.67777 141.461 2.62213 141.628C2.56649 141.795 2.47282 141.946 2.34854 142.07C2.22426 142.195 2.07276 142.288 1.90607 142.344C1.73937 142.399 1.56205 142.415 1.38812 142.39ZM2.66913 131.59H8.52513C8.96489 131.683 9.42091 131.665 9.85181 131.537C10.2827 131.409 10.6748 131.176 10.9927 130.858C11.3105 130.54 11.544 130.148 11.6719 129.717C11.7998 129.286 11.8181 128.83 11.7251 128.39V127.475C11.8159 127.036 11.7961 126.581 11.6675 126.151C11.5388 125.721 11.3053 125.33 10.988 125.012C10.6707 124.695 10.2795 124.461 9.84961 124.333C9.41971 124.204 8.96458 124.184 8.52513 124.275H2.66913V131.59Z" fill="white"/>
<path d="M15.3872 142.268C15.2131 142.229 15.0507 142.15 14.9131 142.036C14.7755 141.923 14.6666 141.778 14.5953 141.615C14.524 141.451 14.4923 141.273 14.5027 141.095C14.5131 140.917 14.5653 140.744 14.6552 140.59L21.9142 122.718C22.0177 122.421 22.2118 122.164 22.4691 121.984C22.7264 121.803 23.0339 121.708 23.3482 121.712H23.4092C23.7115 121.712 24.0056 121.81 24.2475 121.992C24.4894 122.173 24.6661 122.428 24.7512 122.718L32.1322 140.59C32.2568 140.905 32.2525 141.255 32.1202 141.567C31.9878 141.878 31.7381 142.125 31.4252 142.253C31.1122 142.382 30.7612 142.382 30.4483 142.253C30.1353 142.125 29.8856 141.878 29.7532 141.567L28.1062 137.567H18.6062L17.0352 141.567C16.9956 141.737 16.9165 141.895 16.8042 142.029C16.692 142.162 16.5498 142.268 16.3892 142.336C16.2286 142.404 16.0542 142.434 15.88 142.422C15.7059 142.41 15.5371 142.357 15.3872 142.268V142.268ZM19.6112 135.01H27.0532L23.2532 125.767L19.6112 135.01Z" fill="white"/>
<path d="M40.3212 142.39C38.8897 142.474 37.4681 142.106 36.2572 141.338C35.7507 140.947 35.3282 140.458 35.015 139.9C34.7018 139.342 34.5043 138.726 34.4342 138.09C34.4012 137.913 34.4088 137.73 34.4564 137.555C34.5041 137.381 34.5905 137.22 34.7092 137.083C34.8412 136.965 34.9956 136.874 35.1632 136.817C35.3309 136.759 35.5084 136.736 35.6852 136.748C35.8535 136.733 36.0232 136.751 36.1842 136.803C36.3451 136.855 36.4941 136.938 36.6222 137.048C36.8479 137.316 36.9873 137.646 37.0222 137.994C37.0647 138.294 37.1755 138.579 37.3459 138.829C37.5163 139.078 37.7419 139.286 38.0052 139.434C38.7364 139.736 39.5264 139.869 40.3162 139.823H44.7082C45.6575 139.931 46.6126 139.678 47.3842 139.114C47.9655 138.638 48.3746 137.984 48.549 137.253C48.7235 136.522 48.6536 135.754 48.35 135.067C48.0465 134.379 47.526 133.81 46.8683 133.446C46.2106 133.083 45.4518 132.945 44.7082 133.053H40.9322C40.161 133.116 39.385 133.024 38.6502 132.781C37.9154 132.539 37.2367 132.152 36.6542 131.642C36.1504 131.054 35.7678 130.372 35.5284 129.635C35.289 128.898 35.1975 128.121 35.2592 127.349C35.1374 126.581 35.1992 125.794 35.4397 125.054C35.6802 124.314 36.0924 123.641 36.6427 123.091C37.193 122.54 37.8657 122.128 38.6058 121.888C39.346 121.647 40.1325 121.585 40.9012 121.707H44.5322C45.8711 121.633 47.1999 121.979 48.3322 122.697C48.8103 123.062 49.211 123.518 49.5109 124.04C49.8109 124.561 50.004 125.137 50.0792 125.733C50.1203 125.907 50.1196 126.089 50.0772 126.263C50.0348 126.436 49.9519 126.598 49.8352 126.733C49.6994 126.856 49.5401 126.95 49.367 127.009C49.1939 127.068 49.0106 127.091 48.8282 127.077C48.6618 127.09 48.4946 127.068 48.3372 127.012C48.1797 126.957 48.0354 126.87 47.9132 126.756C47.6868 126.495 47.5471 126.17 47.5132 125.826C47.4598 125.565 47.3485 125.319 47.1876 125.107C47.0266 124.894 46.8201 124.72 46.5832 124.598C45.9273 124.345 45.2253 124.233 44.5232 124.27H40.8942C40.023 124.165 39.1447 124.398 38.4392 124.919C37.9405 125.626 37.7182 126.491 37.8142 127.351C37.7193 128.225 37.9469 129.103 38.4542 129.821C39.1599 130.356 40.0457 130.597 40.9252 130.492H44.7072C45.5194 130.368 46.3494 130.437 47.1298 130.694C47.9102 130.951 48.619 131.389 49.1984 131.971C49.7779 132.554 50.2117 133.265 50.4647 134.047C50.7176 134.828 50.7826 135.659 50.6542 136.47C50.7222 137.276 50.6277 138.088 50.3762 138.857C50.1248 139.626 49.7214 140.336 49.1902 140.946C47.9455 142.001 46.3334 142.519 44.7072 142.387L40.3212 142.39Z" fill="white"/>
<path d="M56.9432 142.39C56.7691 142.415 56.5917 142.399 56.4249 142.344C56.2581 142.288 56.1065 142.194 55.9821 142.07C55.8577 141.946 55.764 141.794 55.7083 141.628C55.6526 141.461 55.6365 141.283 55.6612 141.109V122.992C55.6364 122.818 55.6525 122.641 55.7082 122.474C55.7639 122.307 55.8577 122.156 55.9821 122.032C56.1065 121.907 56.2581 121.814 56.4249 121.758C56.5917 121.703 56.7692 121.687 56.9432 121.712H67.8922C68.0634 121.707 68.2338 121.737 68.3933 121.799C68.5528 121.861 68.6983 121.955 68.821 122.074C68.9438 122.194 69.0414 122.337 69.108 122.494C69.1747 122.652 69.209 122.822 69.209 122.993C69.209 123.164 69.1747 123.333 69.108 123.491C69.0414 123.649 68.9438 123.792 68.821 123.911C68.6983 124.03 68.5528 124.124 68.3933 124.186C68.2338 124.248 68.0634 124.278 67.8922 124.273H58.2242V130.679H64.2932C64.4644 130.674 64.6348 130.704 64.7943 130.766C64.9538 130.828 65.0993 130.922 65.222 131.041C65.3448 131.161 65.4424 131.304 65.509 131.461C65.5757 131.619 65.61 131.788 65.61 131.96C65.61 132.131 65.5757 132.3 65.509 132.458C65.4424 132.616 65.3448 132.759 65.222 132.878C65.0993 132.997 64.9538 133.091 64.7943 133.153C64.6348 133.215 64.4644 133.245 64.2932 133.24H58.2242V139.828H67.8922C68.2319 139.828 68.5578 139.963 68.798 140.203C69.0382 140.444 69.1732 140.769 69.1732 141.109C69.1732 141.449 69.0382 141.775 68.798 142.015C68.5578 142.255 68.2319 142.39 67.8922 142.39H56.9432Z" fill="white"/>
<path d="M78.9321 142.39C76.6034 142.39 74.8828 141.833 73.7701 140.72C72.6574 139.607 72.1008 137.886 72.1001 135.558V128.51C72.1001 126.161 72.6591 124.435 73.7771 123.332C74.8951 122.229 76.6134 121.688 78.9321 121.71H82.5921C84.9301 121.71 86.6531 122.264 87.7611 123.371C88.8691 124.478 89.4234 126.202 89.4241 128.541V135.556C89.4241 137.885 88.8698 139.606 87.7611 140.718C86.6524 141.83 84.9294 142.387 82.5921 142.388L78.9321 142.39ZM78.9321 139.828H82.5921C83.4628 139.864 84.3322 139.732 85.1531 139.439C85.4509 139.32 85.7215 139.142 85.9484 138.915C86.1753 138.688 86.3538 138.418 86.4731 138.12C86.765 137.299 86.8967 136.429 86.8611 135.558V128.543C86.8959 127.677 86.7642 126.813 86.4731 125.997C86.3532 125.699 86.1745 125.428 85.9478 125.2C85.721 124.972 85.4508 124.792 85.1531 124.67C84.3336 124.371 83.4637 124.235 82.5921 124.27H78.9321C78.0675 124.227 77.2026 124.351 76.3851 124.636C76.0868 124.754 75.8153 124.93 75.5872 125.156C75.3592 125.381 75.1791 125.65 75.0581 125.947C74.7594 126.767 74.6235 127.638 74.6581 128.51V135.555C74.6223 136.426 74.7544 137.296 75.0471 138.117C75.1661 138.415 75.3444 138.685 75.5712 138.912C75.7979 139.139 76.0684 139.317 76.3661 139.436C77.1883 139.73 78.0595 139.863 78.9321 139.828V139.828Z" fill="white"/>
<path d="M109.494 142.39C107.166 142.39 105.445 141.833 104.332 140.72C103.219 139.607 102.662 137.886 102.662 135.558V128.543C102.662 126.195 103.216 124.464 104.324 123.35C105.432 122.236 107.145 121.69 109.464 121.712H113.154C114.704 121.608 116.244 122.023 117.531 122.893C118.067 123.358 118.499 123.931 118.801 124.573C119.103 125.215 119.267 125.913 119.284 126.622C119.325 126.792 119.325 126.97 119.282 127.139C119.24 127.309 119.157 127.466 119.041 127.597C118.909 127.716 118.755 127.807 118.587 127.864C118.42 127.922 118.242 127.945 118.065 127.933C117.292 127.933 116.845 127.506 116.723 126.652C116.722 126.283 116.634 125.919 116.466 125.59C116.298 125.262 116.054 124.978 115.755 124.761C114.944 124.38 114.049 124.212 113.155 124.273H109.465C108.603 124.229 107.74 124.354 106.925 124.639C106.628 124.758 106.358 124.936 106.133 125.163C105.907 125.39 105.731 125.661 105.614 125.959C105.322 126.788 105.19 127.665 105.225 128.543V135.558C105.19 136.429 105.322 137.299 105.614 138.12C105.733 138.418 105.911 138.688 106.138 138.915C106.365 139.142 106.635 139.32 106.933 139.439C107.754 139.732 108.624 139.864 109.495 139.828H113.155C113.907 139.857 114.659 139.752 115.374 139.516C115.629 139.422 115.861 139.275 116.054 139.084C116.247 138.893 116.398 138.663 116.495 138.41C116.739 137.689 116.847 136.929 116.815 136.168V134.734L114.432 134.71C114.098 134.701 113.782 134.562 113.549 134.322C113.316 134.083 113.186 133.762 113.186 133.429C113.186 133.095 113.316 132.774 113.549 132.535C113.782 132.295 114.098 132.156 114.432 132.147L118.092 132.178C118.266 132.153 118.444 132.169 118.61 132.225C118.777 132.28 118.929 132.374 119.053 132.498C119.177 132.622 119.271 132.774 119.326 132.941C119.382 133.108 119.398 133.285 119.373 133.459V136.173C119.373 138.338 118.87 139.917 117.864 140.909C116.55 142.005 114.856 142.539 113.151 142.395L109.494 142.39Z" fill="white"/>
<path d="M125.37 142.39C125.195 142.419 125.016 142.405 124.848 142.351C124.68 142.296 124.526 142.203 124.401 142.078C124.276 141.953 124.182 141.8 124.128 141.631C124.073 141.463 124.06 141.284 124.088 141.109V123.023C124.073 122.848 124.092 122.671 124.146 122.503C124.2 122.335 124.286 122.18 124.401 122.046C124.58 121.839 124.82 121.694 125.087 121.633C125.354 121.572 125.634 121.598 125.885 121.707C126.136 121.816 126.346 122.003 126.484 122.239C126.621 122.476 126.68 122.751 126.65 123.023V141.11C126.68 141.46 126.573 141.808 126.35 142.079C126.216 142.194 126.06 142.281 125.892 142.334C125.723 142.388 125.546 142.407 125.37 142.39V142.39Z" fill="white"/>
<path d="M138.484 142.39C136.155 142.39 134.435 141.833 133.322 140.72C132.209 139.607 131.653 137.886 131.652 135.558V128.543C131.652 126.195 132.206 124.464 133.314 123.35C134.422 122.236 136.135 121.69 138.453 121.712H142.143C143.693 121.608 145.233 122.023 146.52 122.893C147.056 123.358 147.489 123.93 147.791 124.572C148.093 125.215 148.257 125.913 148.274 126.622C148.315 126.792 148.314 126.97 148.272 127.139C148.229 127.309 148.146 127.466 148.03 127.597C147.899 127.716 147.744 127.807 147.577 127.864C147.409 127.922 147.232 127.945 147.055 127.933C146.281 127.933 145.833 127.506 145.712 126.652C145.711 126.283 145.623 125.919 145.455 125.59C145.287 125.262 145.043 124.977 144.744 124.761C143.933 124.38 143.038 124.212 142.144 124.273H138.454C137.592 124.229 136.73 124.354 135.915 124.639C135.618 124.758 135.348 124.936 135.123 125.163C134.897 125.39 134.72 125.661 134.603 125.959C134.311 126.788 134.179 127.665 134.215 128.543V135.558C134.179 136.429 134.311 137.299 134.603 138.12C134.723 138.418 134.901 138.688 135.128 138.915C135.355 139.142 135.625 139.32 135.923 139.439C136.744 139.732 137.614 139.864 138.485 139.828H142.144C142.897 139.857 143.649 139.752 144.364 139.516C144.619 139.422 144.85 139.274 145.043 139.084C145.236 138.893 145.387 138.663 145.484 138.41C145.728 137.689 145.837 136.929 145.805 136.168V134.734L143.426 134.705C143.255 134.71 143.084 134.68 142.925 134.618C142.765 134.556 142.619 134.462 142.497 134.343C142.374 134.223 142.276 134.08 142.209 133.922C142.143 133.765 142.108 133.595 142.108 133.424C142.108 133.252 142.143 133.083 142.209 132.925C142.276 132.767 142.374 132.624 142.497 132.504C142.619 132.385 142.765 132.291 142.925 132.229C143.084 132.167 143.255 132.137 143.426 132.142L147.085 132.173C147.259 132.148 147.437 132.164 147.603 132.22C147.77 132.275 147.922 132.369 148.046 132.493C148.171 132.617 148.264 132.769 148.32 132.936C148.376 133.103 148.392 133.28 148.367 133.454V136.168C148.367 138.333 147.864 139.912 146.857 140.904C145.543 142.001 143.85 142.535 142.144 142.39H138.484Z" fill="white"/>
<path d="M154.359 142.39C154.185 142.415 154.008 142.399 153.841 142.344C153.674 142.288 153.522 142.194 153.398 142.07C153.274 141.946 153.18 141.794 153.124 141.628C153.069 141.461 153.052 141.283 153.077 141.109V122.992C153.052 122.818 153.069 122.641 153.124 122.474C153.18 122.307 153.274 122.156 153.398 122.032C153.522 121.907 153.674 121.814 153.841 121.758C154.008 121.703 154.185 121.687 154.359 121.712H165.308C165.479 121.707 165.65 121.737 165.809 121.799C165.969 121.861 166.114 121.955 166.237 122.074C166.36 122.194 166.457 122.337 166.524 122.494C166.591 122.652 166.625 122.822 166.625 122.993C166.625 123.164 166.591 123.333 166.524 123.491C166.457 123.649 166.36 123.792 166.237 123.911C166.114 124.03 165.969 124.124 165.809 124.186C165.65 124.248 165.479 124.278 165.308 124.273H155.64V130.679H161.709C161.88 130.674 162.051 130.704 162.21 130.766C162.37 130.828 162.515 130.922 162.638 131.041C162.761 131.161 162.858 131.304 162.925 131.461C162.992 131.619 163.026 131.788 163.026 131.96C163.026 132.131 162.992 132.3 162.925 132.458C162.858 132.616 162.761 132.759 162.638 132.878C162.515 132.997 162.37 133.091 162.21 133.153C162.051 133.215 161.88 133.245 161.709 133.24H155.64V139.828H165.308C165.648 139.828 165.974 139.963 166.214 140.203C166.454 140.444 166.589 140.769 166.589 141.109C166.589 141.449 166.454 141.775 166.214 142.015C165.974 142.255 165.648 142.39 165.308 142.39H154.359Z" fill="white"/>
<path d="M172.141 142.39C171.967 142.415 171.79 142.399 171.623 142.344C171.456 142.288 171.304 142.194 171.18 142.07C171.056 141.946 170.962 141.794 170.906 141.628C170.851 141.461 170.834 141.283 170.859 141.109V122.992C170.834 122.818 170.851 122.641 170.906 122.474C170.962 122.307 171.056 122.156 171.18 122.032C171.304 121.907 171.456 121.814 171.623 121.758C171.79 121.703 171.967 121.687 172.141 121.712C172.398 121.735 172.647 121.815 172.868 121.947C173.09 122.079 173.279 122.259 173.421 122.474L185.682 138.274H185.041V122.992C185.041 122.652 185.176 122.326 185.417 122.086C185.657 121.846 185.983 121.711 186.323 121.711C186.663 121.711 186.989 121.846 187.229 122.086C187.469 122.326 187.604 122.652 187.604 122.992V141.11C187.629 141.284 187.613 141.462 187.558 141.628C187.502 141.795 187.408 141.947 187.284 142.071C187.16 142.195 187.008 142.289 186.841 142.345C186.675 142.4 186.497 142.416 186.323 142.391C186.065 142.373 185.814 142.295 185.591 142.162C185.369 142.03 185.18 141.847 185.041 141.628L172.78 125.828H173.421V141.11C173.446 141.284 173.43 141.461 173.374 141.628C173.319 141.794 173.225 141.946 173.101 142.07C172.977 142.194 172.825 142.288 172.659 142.343C172.492 142.399 172.315 142.415 172.141 142.39V142.39Z" fill="white"/>
<path d="M192.361 142.268C192.187 142.229 192.025 142.15 191.887 142.036C191.749 141.923 191.641 141.778 191.569 141.615C191.498 141.451 191.466 141.273 191.477 141.095C191.487 140.917 191.539 140.744 191.629 140.59L198.888 122.718C198.992 122.421 199.186 122.164 199.443 121.984C199.7 121.803 200.008 121.708 200.322 121.712H200.383C200.685 121.712 200.979 121.81 201.221 121.992C201.463 122.173 201.64 122.428 201.725 122.718L209.106 140.59C209.231 140.905 209.226 141.255 209.094 141.567C208.962 141.878 208.712 142.125 208.399 142.253C208.086 142.382 207.735 142.382 207.422 142.253C207.109 142.125 206.859 141.878 206.727 141.567L205.08 137.567H195.58L194.009 141.567C193.969 141.737 193.89 141.895 193.778 142.029C193.666 142.162 193.524 142.268 193.363 142.336C193.202 142.404 193.028 142.434 192.854 142.422C192.68 142.41 192.511 142.357 192.361 142.268V142.268ZM196.585 135.01H204.027L200.227 125.767L196.585 135.01Z" fill="white"/>
<path d="M63.47 0C25.843 2.345 1.394 27.067 0 64.233V91.96H90.3C127.926 89.615 152.376 72.378 153.769 35.211H125.557C126.069 56.843 106.702 63.311 90.304 63.105L28.216 63.888C27.885 42.496 43.837 28.609 63.47 28.855H180.408V47.21H209.264V0H63.47Z" fill="white"/>
</g>
<defs>
<clipPath id="clip0">
<rect width="209.264" height="142.41" fill="white"/>
</clipPath>
</defs>
</svg>
