<svg width="121" height="102" viewBox="0 0 121 102" fill="none" xmlns="http://www.w3.org/2000/svg">
<g clip-path="url(#clip0)">
<path d="M120.662 94.123V0.000976562H0V94.123L45.531 94.3491L60.795 101.834L75.207 94.3521L120.662 94.123Z" fill="#373635"/>
<path d="M18.6339 75.0301C18.5636 75.0403 18.4919 75.0339 18.4245 75.0115C18.3571 74.9892 18.2958 74.9514 18.2455 74.9012C18.1952 74.851 18.1573 74.7899 18.1348 74.7225C18.1123 74.6551 18.1059 74.5833 18.1159 74.513V67.1961C18.1059 67.1258 18.1123 67.054 18.1348 66.9866C18.1573 66.9192 18.1952 66.8581 18.2455 66.8079C18.2958 66.7577 18.3571 66.7199 18.4245 66.6976C18.4919 66.6752 18.5636 66.6688 18.6339 66.679H21.5159C21.8305 66.6425 22.1492 66.6777 22.4482 66.7818C22.7473 66.8859 23.0189 67.0562 23.2428 67.2801C23.4668 67.504 23.6371 67.7757 23.7412 68.0748C23.8453 68.3738 23.8804 68.6926 23.8439 69.0071V69.376C23.8806 69.6907 23.8456 70.0095 23.7416 70.3087C23.6376 70.6078 23.4672 70.8796 23.2433 71.1036C23.0194 71.3276 22.7477 71.4982 22.4485 71.6024C22.1494 71.7065 21.8306 71.7417 21.5159 71.7051H19.1509V74.513C19.161 74.5832 19.1545 74.6549 19.1321 74.7222C19.1096 74.7895 19.0718 74.8505 19.0217 74.9007C18.9715 74.9509 18.9104 74.9889 18.8431 75.0113C18.7758 75.0337 18.7042 75.0401 18.6339 75.0301V75.0301ZM19.1509 70.67H21.5159C21.6938 70.7078 21.8783 70.7006 22.0526 70.649C22.227 70.5973 22.3857 70.5029 22.5142 70.3743C22.6428 70.2458 22.7372 70.087 22.7889 69.9127C22.8405 69.7383 22.8477 69.5539 22.8099 69.376V69.0071C22.847 68.8294 22.8392 68.6452 22.7873 68.4713C22.7354 68.2973 22.641 68.1391 22.5125 68.0108C22.3841 67.8825 22.2258 67.7882 22.0518 67.7364C21.8778 67.6846 21.6936 67.677 21.5159 67.7142H19.1509V70.67Z" fill="white"/>
<path d="M24.2878 74.9807C24.2171 74.9656 24.151 74.9338 24.0949 74.8882C24.0387 74.8426 23.9942 74.7844 23.965 74.7183C23.9357 74.6522 23.9225 74.5801 23.9265 74.5078C23.9304 74.4356 23.9515 74.3653 23.9878 74.3028L26.9198 67.0847C26.9618 66.9651 27.0402 66.8617 27.1441 66.7889C27.2479 66.716 27.372 66.6774 27.4988 66.6787H27.5228C27.6449 66.6786 27.7638 66.7181 27.8615 66.7913C27.9593 66.8645 28.0306 66.9675 28.0648 67.0847L31.0458 74.3028C31.0721 74.3658 31.0857 74.4335 31.0858 74.5017C31.086 74.57 31.0727 74.6376 31.0467 74.7007C31.0207 74.7639 30.9825 74.8213 30.9343 74.8697C30.8861 74.918 30.8288 74.9564 30.7658 74.9827C30.7028 75.009 30.6352 75.0226 30.5669 75.0227C30.4986 75.0229 30.431 75.0097 30.3678 74.9837C30.3047 74.9577 30.2473 74.9196 30.1989 74.8714C30.1505 74.8232 30.1121 74.7657 30.0858 74.7027L29.4198 73.0889H25.5868L24.9528 74.7027C24.9361 74.7708 24.9037 74.8342 24.8582 74.8875C24.8126 74.9408 24.7552 74.9825 24.6905 75.0096C24.6258 75.0366 24.5556 75.048 24.4857 75.043C24.4158 75.038 24.348 75.0167 24.2878 74.9807V74.9807ZM25.9938 72.0498H28.9988L27.4658 68.3167L25.9938 72.0498Z" fill="white"/>
<path d="M34.3581 75.0299C33.7798 75.0639 33.2055 74.9156 32.716 74.6059C32.5117 74.4477 32.3412 74.2499 32.2148 74.0246C32.0884 73.7992 32.0085 73.5507 31.98 73.2938C31.967 73.222 31.9702 73.1482 31.9894 73.0778C32.0086 73.0074 32.0433 72.9421 32.091 72.8869C32.1444 72.8392 32.2067 72.8029 32.2744 72.7797C32.3421 72.7565 32.4137 72.7469 32.4851 72.7519C32.5532 72.7458 32.622 72.7537 32.6871 72.7748C32.7522 72.7959 32.8124 72.83 32.864 72.8749C32.9558 72.9828 33.0126 73.1161 33.027 73.257C33.0447 73.3781 33.09 73.4935 33.1594 73.5944C33.2287 73.6953 33.3203 73.7791 33.4271 73.839C33.7227 73.9605 34.0419 74.0141 34.361 73.996H36.134C36.5176 74.0395 36.9035 73.9369 37.215 73.7089C37.4421 73.4019 37.5447 73.0205 37.502 72.641C37.5522 72.4512 37.5519 72.2513 37.5012 72.0617C37.4504 71.872 37.3511 71.6989 37.2128 71.5595C37.0746 71.42 36.9024 71.3191 36.7131 71.2667C36.5239 71.2144 36.3243 71.2124 36.134 71.2609H34.607C34.2955 71.2863 33.9821 71.2489 33.6853 71.151C33.3884 71.0531 33.1143 70.8966 32.879 70.6908C32.5142 70.1896 32.3172 69.586 32.3161 68.966C32.315 68.346 32.5099 67.7414 32.8731 67.2389C33.1085 67.036 33.3821 66.8819 33.6777 66.7858C33.9734 66.6896 34.2852 66.6532 34.5951 66.6789H36.06C36.6016 66.648 37.1392 66.7881 37.597 67.079C37.7902 67.2262 37.952 67.4105 38.0731 67.621C38.1941 67.8315 38.272 68.0639 38.3021 68.3048C38.3179 68.3747 38.3171 68.4473 38.2997 68.5167C38.2823 68.5862 38.2489 68.6508 38.202 68.705C38.1473 68.7547 38.0829 68.7926 38.0129 68.8166C37.9429 68.8405 37.8688 68.8497 37.795 68.8439C37.7279 68.8491 37.6604 68.8402 37.5968 68.8178C37.5333 68.7954 37.4751 68.7602 37.426 68.714C37.3351 68.6087 37.2791 68.4776 37.266 68.339C37.2449 68.2328 37.2002 68.1326 37.1351 68.046C37.07 67.9595 36.9863 67.8888 36.89 67.839C36.6251 67.737 36.3416 67.692 36.058 67.7069H34.593C34.2412 67.6646 33.8865 67.7579 33.601 67.9679C33.4 68.2539 33.3104 68.6034 33.349 68.9508C33.3101 69.3045 33.4018 69.6602 33.607 69.9508C33.8926 70.1674 34.2512 70.2646 34.607 70.2218H36.134C36.4619 70.1724 36.7968 70.2009 37.1116 70.3051C37.4264 70.4092 37.7122 70.586 37.946 70.8212C38.1797 71.0564 38.3547 71.3434 38.4569 71.6588C38.5591 71.9743 38.5855 72.3093 38.534 72.6369C38.5615 72.9624 38.5232 73.2901 38.4215 73.6005C38.3198 73.9109 38.1567 74.1978 37.9421 74.444C37.4392 74.87 36.7879 75.0793 36.131 75.026L34.3581 75.0299Z" fill="white"/>
<path d="M41.071 75.0301C41.0007 75.0403 40.9289 75.0339 40.8615 75.0116C40.7941 74.9892 40.7328 74.9514 40.6825 74.9012C40.6322 74.851 40.5943 74.7899 40.5718 74.7225C40.5494 74.6551 40.5429 74.5833 40.5529 74.513V67.1961C40.5429 67.1258 40.5494 67.054 40.5718 66.9867C40.5943 66.9193 40.6322 66.8581 40.6825 66.8079C40.7328 66.7578 40.7941 66.7199 40.8615 66.6976C40.9289 66.6752 41.0007 66.6688 41.071 66.679H45.493C45.6263 66.6849 45.7522 66.7421 45.8444 66.8385C45.9367 66.9349 45.9882 67.0632 45.9882 67.1966C45.9882 67.3301 45.9367 67.4584 45.8444 67.5548C45.7522 67.6512 45.6263 67.7083 45.493 67.7142H41.5929V70.3001H44.0439C44.1812 70.3001 44.3128 70.3547 44.4099 70.4517C44.5069 70.5488 44.5614 70.6802 44.5614 70.8175C44.5614 70.9547 44.5069 71.0864 44.4099 71.1834C44.3128 71.2805 44.1812 71.335 44.0439 71.335H41.5929V73.9962H45.493C45.6301 73.9962 45.7616 74.0506 45.8585 74.1475C45.9555 74.2445 46.01 74.3759 46.01 74.513C46.01 74.6501 45.9555 74.7818 45.8585 74.8787C45.7616 74.9757 45.6301 75.0301 45.493 75.0301H41.071Z" fill="white"/>
<path d="M49.9518 75.03C49.5758 75.0905 49.1907 75.061 48.8283 74.9438C48.4659 74.8266 48.1366 74.625 47.8672 74.3557C47.5979 74.0863 47.3963 73.7569 47.2791 73.3945C47.1619 73.0321 47.1323 72.647 47.1928 72.2709V69.426C47.1305 69.0501 47.159 68.6648 47.2758 68.3022C47.3926 67.9396 47.5944 67.6101 47.8644 67.3413C48.1343 67.0725 48.4646 66.8723 48.8277 66.757C49.1909 66.6418 49.5763 66.615 49.9518 66.6789H51.4308C51.8072 66.6168 52.1929 66.6452 52.556 66.7619C52.9192 66.8786 53.2493 67.0801 53.519 67.3498C53.7887 67.6195 53.9902 67.9496 54.1069 68.3127C54.2235 68.6758 54.252 69.0616 54.1898 69.4379V72.2709C54.252 72.6473 54.2235 73.0331 54.1069 73.3962C53.9902 73.7593 53.7887 74.0894 53.519 74.3591C53.2493 74.6288 52.9192 74.8303 52.556 74.947C52.1929 75.0636 51.8072 75.0921 51.4308 75.03H49.9518ZM49.9518 73.996H51.4308C51.7824 74.01 52.1333 73.9567 52.4648 73.8391C52.585 73.7908 52.6942 73.7185 52.7858 73.6269C52.8774 73.5353 52.9496 73.4261 52.9978 73.3059C53.1161 72.9741 53.1694 72.6228 53.1548 72.2709V69.4379C53.169 69.0884 53.1157 68.7393 52.9978 68.4099C52.9495 68.2893 52.8775 68.1797 52.7859 68.0876C52.6943 67.9955 52.5851 67.9229 52.4648 67.874C52.1339 67.7537 51.7826 67.6995 51.4308 67.7141H49.9518C49.6029 67.6961 49.2538 67.746 48.9238 67.861C48.8033 67.9086 48.6937 67.9799 48.6016 68.071C48.5095 68.1621 48.4367 68.2711 48.3878 68.3911C48.2675 68.7223 48.2131 69.0738 48.2278 69.426V72.2709C48.2133 72.6228 48.2666 72.9741 48.3848 73.3059C48.4331 73.4261 48.5052 73.5353 48.5968 73.6269C48.6884 73.7185 48.7976 73.7908 48.9178 73.8391C49.2494 73.9567 49.6003 74.01 49.9518 73.996V73.996Z" fill="white"/>
<path d="M62.2949 75.0302C61.9189 75.0909 61.5337 75.0616 61.1712 74.9445C60.8087 74.8273 60.4792 74.6257 60.2098 74.3563C59.9404 74.0869 59.7389 73.7574 59.6217 73.3949C59.5046 73.0324 59.4752 72.6472 59.5359 72.2711V69.4381C59.5038 69.0611 59.5465 68.6816 59.6617 68.3212C59.7768 67.9608 59.9622 67.6265 60.2069 67.338C60.4907 67.0938 60.8208 66.9095 61.1775 66.7958C61.5342 66.682 61.9102 66.6413 62.2829 66.6762H63.7729C64.3989 66.6341 65.021 66.802 65.5409 67.1532C65.7573 67.3411 65.932 67.5721 66.0539 67.8314C66.1758 68.0907 66.2422 68.3726 66.2489 68.6591C66.2653 68.7279 66.2647 68.7997 66.2473 68.8683C66.2299 68.9369 66.1961 69.0004 66.1489 69.0531C66.0949 69.1015 66.0315 69.1383 65.9628 69.1615C65.894 69.1847 65.8213 69.1938 65.7489 69.1881C65.4376 69.1881 65.2569 69.0157 65.2069 68.671C65.2066 68.5219 65.171 68.3751 65.1031 68.2423C65.0351 68.1095 64.9367 67.9946 64.8159 67.9071C64.4886 67.7523 64.1272 67.6835 63.7659 67.7072H62.2759C61.9276 67.689 61.5791 67.7389 61.2499 67.8541C61.13 67.902 61.0211 67.9741 60.9301 68.0658C60.8391 68.1575 60.7679 68.2667 60.7209 68.3871C60.6023 68.7219 60.5487 69.0761 60.5629 69.431V72.264C60.5486 72.616 60.6023 72.9675 60.7209 73.2992C60.769 73.4194 60.8409 73.5284 60.9324 73.62C61.0238 73.7116 61.1329 73.7839 61.2529 73.8322C61.5848 73.9497 61.9361 74.003 62.2879 73.9891H63.7659C64.0711 74.0015 64.3759 73.9589 64.6659 73.8632C64.7688 73.825 64.8623 73.7654 64.9404 73.6884C65.0185 73.6113 65.0794 73.5185 65.1189 73.4161C65.217 73.1246 65.2608 72.8175 65.2479 72.5101V71.931L64.2869 71.9191C64.1497 71.9191 64.0181 71.8645 63.921 71.7675C63.824 71.6704 63.7694 71.539 63.7694 71.4017C63.7694 71.2645 63.824 71.1328 63.921 71.0358C64.0181 70.9387 64.1497 70.8842 64.2869 70.8842L65.7659 70.8971C65.8362 70.8871 65.9078 70.8935 65.9751 70.9159C66.0424 70.9383 66.1035 70.9763 66.1537 71.0265C66.2038 71.0767 66.2416 71.1377 66.2641 71.205C66.2865 71.2723 66.293 71.344 66.2829 71.4142V72.514C66.3136 72.8574 66.2756 73.2034 66.171 73.5319C66.0664 73.8603 65.8975 74.1647 65.6739 74.4271C65.144 74.8689 64.4615 75.0845 63.7739 75.0272L62.2949 75.0302Z" fill="white"/>
<path d="M68.7068 75.0301C68.6363 75.0419 68.5639 75.0366 68.4957 75.0148C68.4276 74.993 68.3656 74.9552 68.315 74.9047C68.2643 74.8541 68.2265 74.7923 68.2045 74.7242C68.1826 74.6561 68.1772 74.5837 68.1888 74.5131V67.213C68.1826 67.1423 68.1905 67.0712 68.2121 67.0035C68.2338 66.9359 68.2687 66.8732 68.3148 66.8192C68.3871 66.7355 68.4842 66.6769 68.592 66.6522C68.6998 66.6276 68.8127 66.638 68.9142 66.682C69.0156 66.726 69.1004 66.8013 69.1561 66.8968C69.2118 66.9924 69.2355 67.103 69.2238 67.213V74.5131C69.2357 74.6545 69.1915 74.795 69.1008 74.9042C69.0469 74.9504 68.9842 74.9853 68.9166 75.007C68.8489 75.0286 68.7776 75.0365 68.7068 75.0301V75.0301Z" fill="white"/>
<path d="M74.0068 75.0302C73.6308 75.0909 73.2456 75.0616 72.8831 74.9445C72.5206 74.8273 72.1911 74.6257 71.9217 74.3563C71.6524 74.0869 71.4508 73.7574 71.3336 73.3949C71.2165 73.0324 71.1871 72.6472 71.2479 72.2711V69.4381C71.2157 69.0611 71.2584 68.6816 71.3736 68.3212C71.4887 67.9608 71.6741 67.6265 71.9188 67.338C72.2026 67.0938 72.5327 66.9095 72.8894 66.7958C73.2461 66.682 73.6221 66.6413 73.9948 66.6762H75.4849C76.1108 66.6342 76.7329 66.8021 77.2528 67.1532C77.4692 67.3411 77.6439 67.5721 77.7658 67.8314C77.8877 68.0907 77.9541 68.3726 77.9608 68.6591C77.9772 68.7279 77.9766 68.7997 77.9592 68.8683C77.9418 68.9369 77.908 69.0004 77.8608 69.0531C77.8075 69.1008 77.7452 69.1373 77.6775 69.1605C77.6098 69.1837 77.5382 69.193 77.4668 69.1881C77.1538 69.1881 76.9738 69.016 76.9248 68.671C76.9243 68.5218 76.8885 68.3748 76.8204 68.2421C76.7523 68.1093 76.6538 67.9946 76.5328 67.9071C76.2055 67.7522 75.8442 67.6834 75.4829 67.7072H73.9928C73.6445 67.6891 73.2961 67.739 72.9668 67.8541C72.8469 67.902 72.738 67.9741 72.647 68.0658C72.556 68.1575 72.4848 68.2667 72.4378 68.3871C72.3196 68.7219 72.2663 69.0762 72.2808 69.431V72.264C72.2663 72.6159 72.3196 72.9675 72.4378 73.2992C72.486 73.4195 72.558 73.5286 72.6497 73.6202C72.7413 73.7119 72.8505 73.784 72.9708 73.8322C73.3024 73.9498 73.6533 74.0031 74.0048 73.9891H75.4829C75.788 74.0013 76.0928 73.9586 76.3828 73.8632C76.4855 73.8248 76.5788 73.7652 76.6567 73.6881C76.7346 73.6111 76.7953 73.5183 76.8348 73.4161C76.9333 73.1247 76.9774 72.8175 76.9648 72.5101V71.931L76.0038 71.9191C75.8666 71.9191 75.735 71.8645 75.6379 71.7675C75.5409 71.6704 75.4863 71.539 75.4863 71.4017C75.4863 71.2645 75.5409 71.1328 75.6379 71.0358C75.735 70.9387 75.8666 70.8842 76.0038 70.8842L77.4818 70.8971C77.5521 70.8871 77.6237 70.8935 77.691 70.9159C77.7583 70.9383 77.8194 70.9763 77.8696 71.0265C77.9197 71.0767 77.9575 71.1377 77.98 71.205C78.0024 71.2723 78.0089 71.344 77.9988 71.4142V72.514C78.0296 72.8575 77.9915 73.2036 77.8868 73.5321C77.782 73.8606 77.6127 74.1649 77.3888 74.4271C76.8592 74.8694 76.1765 75.0851 75.4888 75.0272L74.0068 75.0302Z" fill="white"/>
<path d="M80.4149 75.0301C80.3446 75.0403 80.2729 75.0339 80.2055 75.0116C80.1381 74.9892 80.0768 74.9514 80.0265 74.9012C79.9762 74.851 79.9383 74.7899 79.9158 74.7225C79.8934 74.6551 79.8869 74.5833 79.8969 74.513V67.1961C79.8869 67.1258 79.8934 67.054 79.9158 66.9867C79.9383 66.9193 79.9762 66.8581 80.0265 66.8079C80.0768 66.7578 80.1381 66.7199 80.2055 66.6976C80.2729 66.6752 80.3446 66.6688 80.4149 66.679H84.837C84.9703 66.6849 85.0962 66.7421 85.1884 66.8385C85.2807 66.9349 85.3322 67.0632 85.3322 67.1966C85.3322 67.3301 85.2807 67.4584 85.1884 67.5548C85.0962 67.6512 84.9703 67.7083 84.837 67.7142H80.9319V70.3001H83.3829C83.5202 70.3001 83.6518 70.3547 83.7489 70.4517C83.8459 70.5488 83.9004 70.6802 83.9004 70.8175C83.9004 70.9547 83.8459 71.0864 83.7489 71.1834C83.6518 71.2805 83.5202 71.335 83.3829 71.335H80.9319V73.9962H84.837C84.9741 73.9962 85.1056 74.0506 85.2025 74.1475C85.2995 74.2445 85.354 74.3759 85.354 74.513C85.354 74.6501 85.2995 74.7818 85.2025 74.8787C85.1056 74.9757 84.9741 75.0301 84.837 75.0301H80.4149Z" fill="white"/>
<path d="M87.5958 75.03C87.5256 75.04 87.454 75.0336 87.3867 75.0112C87.3194 74.9888 87.2582 74.9508 87.2081 74.9006C87.1579 74.8504 87.1201 74.7894 87.0977 74.7221C87.0753 74.6548 87.0688 74.5831 87.0788 74.5129V67.196C87.0688 67.1258 87.0753 67.0541 87.0977 66.9868C87.1201 66.9195 87.1579 66.8585 87.2081 66.8083C87.2582 66.7582 87.3194 66.7202 87.3867 66.6977C87.454 66.6753 87.5256 66.6689 87.5958 66.6789C87.6997 66.6879 87.8001 66.7203 87.8897 66.7736C87.9792 66.827 88.0555 66.9 88.1128 66.987L93.0648 73.3669H92.8068V67.196C92.8068 67.0588 92.8613 66.9271 92.9584 66.83C93.0554 66.733 93.1871 66.6784 93.3243 66.6784C93.4616 66.6784 93.5932 66.733 93.6903 66.83C93.7873 66.9271 93.8418 67.0588 93.8418 67.196V74.5129C93.8519 74.5832 93.8454 74.655 93.8229 74.7224C93.8004 74.7898 93.7625 74.8509 93.7123 74.9011C93.662 74.9513 93.6007 74.9891 93.5333 75.0114C93.4658 75.0338 93.3941 75.0402 93.3238 75.03C93.2195 75.0229 93.1183 74.9912 93.0285 74.9377C92.9386 74.8842 92.8627 74.8103 92.8068 74.7219L87.8548 68.342H88.1128V74.5129C88.1229 74.5831 88.1164 74.6548 88.0939 74.7221C88.0715 74.7894 88.0337 74.8504 87.9836 74.9006C87.9334 74.9508 87.8722 74.9888 87.8049 75.0112C87.7376 75.0336 87.6661 75.04 87.5958 75.03V75.03Z" fill="white"/>
<path d="M95.7629 74.9807C95.6922 74.9656 95.6261 74.9338 95.57 74.8882C95.5138 74.8426 95.4693 74.7844 95.4401 74.7183C95.4108 74.6522 95.3976 74.5801 95.4016 74.5078C95.4055 74.4356 95.4266 74.3653 95.4629 74.3028L98.3949 67.0847C98.4369 66.9651 98.5153 66.8617 98.6192 66.7889C98.723 66.716 98.8471 66.6774 98.9739 66.6787H98.9989C99.121 66.6786 99.2399 66.7181 99.3376 66.7913C99.4354 66.8645 99.5067 66.9675 99.5409 67.0847L102.522 74.3028C102.548 74.3659 102.562 74.4336 102.562 74.502C102.562 74.5703 102.549 74.638 102.523 74.7012C102.497 74.7644 102.458 74.8217 102.41 74.8701C102.362 74.9186 102.305 74.9569 102.241 74.9832C102.178 75.0095 102.111 75.0231 102.042 75.0232C101.974 75.0233 101.906 75.01 101.843 74.9839C101.78 74.9579 101.722 74.9196 101.674 74.8714C101.626 74.8231 101.587 74.7658 101.561 74.7027L100.896 73.0889H97.0579L96.4239 74.7027C96.407 74.7702 96.3747 74.8329 96.3294 74.8858C96.2841 74.9386 96.2271 74.9801 96.163 75.0071C96.0988 75.0341 96.0293 75.0459 95.9598 75.0413C95.8904 75.0367 95.823 75.0159 95.7629 74.9807V74.9807ZM97.4689 72.0498H100.474L98.9409 68.3167L97.4689 72.0498Z" fill="white"/>
<path d="M43.707 17.5229C28.507 18.4699 18.636 28.4541 18.073 43.4651V54.665H54.545C69.745 53.718 79.616 46.7561 80.178 31.7461H68.778C68.984 40.4821 61.162 43.094 54.54 43.011L29.464 43.3279C29.33 34.6879 35.773 29.079 43.702 29.179H90.93V36.593H102.584V17.5249L43.707 17.5229Z" fill="white"/>
</g>
<defs>
<clipPath id="clip0">
<rect width="120.662" height="101.833" fill="white"/>
</clipPath>
</defs>
</svg>
