<svg xmlns="http://www.w3.org/2000/svg" width="49.324" height="28.147" viewBox="0 0 49.324 28.147">
  <g id="Grupo_21" data-name="Grupo 21" transform="translate(-283.727 -3271.605)">
    <g id="Grupo_19" data-name="Grupo 19">
      <rect id="Rectángulo_15" data-name="Rectángulo 15" width="0.392" height="4.121" transform="translate(283.727 3295.536)" fill="#1f1f1f"/>
      <path id="Trazado_39" data-name="Trazado 39" d="M286.125,3295.536h.433l2.408,3.491h.014v-3.491h.39v4.121h-.438l-2.407-3.486h-.008v3.486h-.394Z" fill="#1f1f1f"/>
      <path id="Trazado_40" data-name="Trazado 40" d="M290.894,3295.536h.423l1.33,3.7h.017l1.327-3.7h.41l-1.528,4.121h-.452Z" fill="#1f1f1f"/>
      <path id="Trazado_41" data-name="Trazado 41" d="M295.93,3295.536h2.84v.33h-2.457v1.49h2.3v.34h-2.3v1.626H298.8v.335H295.93Z" fill="#1f1f1f"/>
      <path id="Trazado_42" data-name="Trazado 42" d="M300.68,3298.3c-.011.851.6,1.106,1.35,1.106.43,0,1.088-.237,1.088-.831,0-.472-.464-.654-.848-.748l-.918-.227c-.486-.116-.931-.35-.931-.989,0-.417.259-1.165,1.424-1.165.809,0,1.525.443,1.516,1.281h-.386a1.015,1.015,0,0,0-1.122-.945c-.537,0-1.032.21-1.032.818,0,.4.284.548.621.632l1.006.252c.581.153,1.069.414,1.069,1.085,0,.28-.113,1.18-1.583,1.18-.975,0-1.692-.446-1.642-1.449Z" fill="#1f1f1f"/>
      <path id="Trazado_43" data-name="Trazado 43" d="M304.843,3295.536h3.268v.33h-1.437v3.791h-.392v-3.791h-1.439Z" fill="#1f1f1f"/>
      <path id="Trazado_44" data-name="Trazado 44" d="M309.638,3295.536h.576l1.432,3.617,1.408-3.617h.588v4.121h-.395v-3.56h-.014l-1.4,3.56h-.37l-1.413-3.56h-.014v3.56h-.394Z" fill="#1f1f1f"/>
      <path id="Trazado_45" data-name="Trazado 45" d="M315.611,3295.536h2.845v.33H316v1.49h2.3v.34H316v1.626h2.484v.335h-2.877Z" fill="#1f1f1f"/>
      <path id="Trazado_46" data-name="Trazado 46" d="M320.18,3295.536h.44l2.409,3.491h.008v-3.491h.385v4.121h-.434l-2.4-3.486h-.014v3.486h-.394Z" fill="#1f1f1f"/>
      <path id="Trazado_47" data-name="Trazado 47" d="M324.965,3295.536h3.258v.33h-1.435v3.791H326.4v-3.791h-1.431Z" fill="#1f1f1f"/>
      <path id="Trazado_48" data-name="Trazado 48" d="M329.951,3298.3c-.016.851.6,1.106,1.344,1.106.433,0,1.1-.237,1.1-.831,0-.472-.474-.654-.853-.748l-.916-.227c-.483-.116-.927-.35-.927-.989,0-.417.257-1.165,1.42-1.165a1.35,1.35,0,0,1,1.521,1.281h-.392a1.009,1.009,0,0,0-1.121-.945c-.536,0-1.038.21-1.038.818,0,.4.29.548.625.632l1,.252c.586.153,1.07.414,1.07,1.085,0,.28-.122,1.18-1.582,1.18-.972,0-1.688-.446-1.646-1.449Z" fill="#1f1f1f"/>
    </g>
    <g id="Grupo_20" data-name="Grupo 20">
      <path id="Trazado_49" data-name="Trazado 49" d="M292.872,3290.869h-9.145v-18.777h8.658c3.761,0,5.655,1.948,5.655,5.086a4.381,4.381,0,0,1-1.84,3.68,4.769,4.769,0,0,1,2.57,4.492C298.77,3288.705,296.5,3290.869,292.872,3290.869Zm-5.574-15.53v4.139h5.087a2.078,2.078,0,0,0,2.192-2.083,1.984,1.984,0,0,0-2.192-2.056Zm5.006,7.413H287.3v4.843h5.087c1.38,0,2.733-.541,2.733-2.381C295.118,3283.645,294.117,3282.752,292.3,3282.752Z" fill="#1f1f1f"/>
      <path id="Trazado_50" data-name="Trazado 50" d="M315.048,3277.774h-3.572c0-1.624-1.353-2.841-3.625-2.841-1.894,0-3.653.73-3.653,2.164,0,1.3,1.272,1.759,4.14,2.354,4.464.893,7.278,2,7.278,5.844,0,3.626-3.031,5.9-7.765,5.9-3.68,0-7.684-2.029-7.684-6.548h3.571c0,2.219,2.219,3.274,4.113,3.274,2.056,0,4.193-.731,4.193-2.516,0-1.191-.974-1.921-4.437-2.6s-6.98-1.7-6.98-5.736c0-3.219,2.841-5.465,7.224-5.465C312.8,3271.6,315.048,3274.8,315.048,3277.774Z" fill="#1f1f1f"/>
      <path id="Trazado_51" data-name="Trazado 51" d="M324.582,3290.869h-6.954v-18.777h6.954c5.222,0,8.469,3.6,8.469,9.388C333.051,3287.216,329.723,3290.869,324.582,3290.869Zm0-15.449H321.2v12.121h3.382c4.248,0,4.9-3.815,4.9-6.088C329.479,3278.694,328.613,3275.42,324.582,3275.42Z" fill="#1f1f1f"/>
    </g>
  </g>
</svg>
