<svg xmlns="http://www.w3.org/2000/svg" width="57.388" height="27.895" viewBox="0 0 57.388 27.895">
  <g id="Grupo_18" data-name="Grupo 18" transform="translate(-139.949 -3271.731)">
    <path id="Trazado_29" data-name="Trazado 29" d="M191.869,3291.136l5.431,0-8.934-19.4-2.774,5.769Z" fill="#1f1f1f"/>
    <path id="Trazado_30" data-name="Trazado 30" d="M167.58,3271.731h-.8v5.339h.8a4.385,4.385,0,0,1,0,8.731h-.8v5.332h.8c4.869,0,8.817-4.344,8.817-9.7s-3.948-9.7-8.817-9.7" fill="#1f1f1f"/>
    <path id="Trazado_31" data-name="Trazado 31" d="M148.767,3271.731c-4.87,0-8.818,4.344-8.818,9.7s3.948,9.7,8.818,9.7,8.818-4.344,8.818-9.7-3.948-9.7-8.818-9.7M148.7,3285.8a4.385,4.385,0,1,1,3.969-4.365,4.18,4.18,0,0,1-3.969,4.365" fill="#1f1f1f"/>
    <path id="Trazado_32" data-name="Trazado 32" d="M142.175,3299.522l-1.744-2.225v2.225h-.473v-2.993h.478l1.739,2.219v-2.219h.474v2.993Z" fill="#1f1f1f"/>
    <path id="Trazado_33" data-name="Trazado 33" d="M148.289,3299.522v-2.993h2.454v.508h-1.98v.688h1.087v.509h-1.087v.78H150.8v.509Z" fill="#1f1f1f"/>
    <path id="Trazado_34" data-name="Trazado 34" d="M158.922,3299.522h-.479l-.657-2.156-.695,2.156h-.462l-.99-2.993h.506l.711,2.167.7-2.167h.479l.656,2.167.744-2.167h.506Z" fill="#1f1f1f"/>
    <path id="Trazado_35" data-name="Trazado 35" d="M171.893,3298.175v1.346h-.473v-1.346l-1.222-1.647h.6l.857,1.161.856-1.161h.6Z" fill="#1f1f1f"/>
    <path id="Trazado_36" data-name="Trazado 36" d="M179.458,3299.626a1.586,1.586,0,0,1-1.679-1.578v-.08a1.717,1.717,0,0,1,3.418.051,1.633,1.633,0,0,1-1.739,1.607m.037-2.665a1.124,1.124,0,0,0-1.237,1.082,1.093,1.093,0,0,0,1.205,1.063,1.14,1.14,0,0,0,1.255-1.081,1.1,1.1,0,0,0-1.223-1.064" fill="#1f1f1f"/>
    <path id="Trazado_37" data-name="Trazado 37" d="M188.856,3299.522l-.808-1.225h-.974v1.225H186.6v-2.993h1.721c.565,0,1.061.189,1.061.883a.811.811,0,0,1-.749.873l.814,1.237Zm-.517-2.485h-1.265v.751h1.292c.263,0,.538-.057.538-.4,0-.254-.113-.352-.565-.352" fill="#1f1f1f"/>
    <path id="Trazado_38" data-name="Trazado 38" d="M196.755,3299.522l-1.056-1.56-.521.5v1.063H194.7v-2.993h.474v1.328l1.361-1.328h.608l-1.076,1.1,1.265,1.9Z" fill="#1f1f1f"/>
  </g>
</svg>
