<svg xmlns="http://www.w3.org/2000/svg" width="80.047" height="7.649" viewBox="0 0 80.047 7.649">
  <g id="Grupo_1" data-name="Grupo 1" transform="translate(-350.445 -3529.535)">
    <path id="Trazado_3" data-name="Trazado 3" d="M352.379,3532.892h1.041a.62.62,0,0,0,.445-.191.666.666,0,0,0,0-.977.65.65,0,0,0-.488-.213h-1Zm0,4.227h-1.934v-7.52h2.932a2.616,2.616,0,0,1,1.848.765,2.615,2.615,0,0,1,0,3.7,1.441,1.441,0,0,1-.4.319l1.232,2.74h-2.1l-1.019-2.294h-.552Z" fill="#fff"/>
    <path id="Trazado_4" data-name="Trazado 4" d="M359.389,3531.511v.957h2.316v1.677h-2.316v1.063h2.634v1.911h-4.631v-7.52h4.631v1.912Z" fill="#fff"/>
    <path id="Trazado_5" data-name="Trazado 5" d="M365.826,3537.119h-1.934V3529.6h1.721l1.975,2.762,1.976-2.762h1.721v7.521h-1.934v-3.929l-1.764,2.485-1.763-2.485Z" fill="#fff"/>
    <path id="Trazado_6" data-name="Trazado 6" d="M376.639,3531.894a1.294,1.294,0,0,0-.935-.447,1.374,1.374,0,0,0-.956.447,2.151,2.151,0,0,0-.552,1.231v.234a2.263,2.263,0,0,0,.467,1.4,1.316,1.316,0,0,0,2.082,0,2.264,2.264,0,0,0,.468-1.4v-.234a2.031,2.031,0,0,0-.574-1.231m2.485,1.465a4.093,4.093,0,0,1-.913,2.635,3.235,3.235,0,0,1-5.014,0,4.232,4.232,0,0,1-.935-2.635c0-.127.021-.277.021-.4a4.143,4.143,0,0,1,1.105-2.423,3.186,3.186,0,0,1,4.632,0,4,4,0,0,1,1.083,2.423,3.557,3.557,0,0,1,.021.4" fill="#fff"/>
    <path id="Trazado_7" data-name="Trazado 7" d="M380.186,3529.6H382.1v5.608h3.356v1.912h-5.269Z" fill="#fff"/>
    <rect id="Rect치ngulo_6" data-name="Rect치ngulo 6" width="1.975" height="7.52" transform="translate(386.73 3529.6)" fill="#fff"/>
    <path id="Trazado_8" data-name="Trazado 8" d="M397.181,3529.6v7.52h-1.593l-.34-.467-2.634-3.633v4.1h-1.933v-7.52h1.785l2.782,3.8v-3.8Z" fill="#fff"/>
    <path id="Trazado_9" data-name="Trazado 9" d="M402.557,3531.894a1.3,1.3,0,0,0-.936-.447,1.374,1.374,0,0,0-.955.447,2.139,2.139,0,0,0-.553,1.231v.234a2.263,2.263,0,0,0,.467,1.4,1.317,1.317,0,0,0,2.083,0,2.263,2.263,0,0,0,.466-1.4v-.234a2.035,2.035,0,0,0-.572-1.231m2.485,1.465a4.094,4.094,0,0,1-.914,2.635,3.234,3.234,0,0,1-5.013,0,4.226,4.226,0,0,1-.935-2.635c0-.127.021-.277.021-.4a4.143,4.143,0,0,1,1.105-2.423,3.186,3.186,0,0,1,4.632,0,4,4,0,0,1,1.083,2.423,3.557,3.557,0,0,1,.021.4" fill="#fff"/>
    <rect id="Rect치ngulo_7" data-name="Rect치ngulo 7" width="2.358" height="2.358" transform="translate(406.401 3534.761)" fill="#fff"/>
    <path id="Trazado_10" data-name="Trazado 10" d="M414.134,3531.894a1.294,1.294,0,0,0-.934-.447,1.376,1.376,0,0,0-.957.447,2.145,2.145,0,0,0-.552,1.231v.234a2.252,2.252,0,0,0,.469,1.4,1.315,1.315,0,0,0,2.081,0,2.263,2.263,0,0,0,.466-1.4v-.234a2.03,2.03,0,0,0-.573-1.231m2.485,1.465a4.1,4.1,0,0,1-.912,2.635,3.235,3.235,0,0,1-5.014,0,4.238,4.238,0,0,1-.935-2.635c0-.127.022-.277.022-.4a4.136,4.136,0,0,1,1.1-2.423,3.184,3.184,0,0,1,4.63,0,3.994,3.994,0,0,1,1.085,2.423,3.735,3.735,0,0,1,.02.4" fill="#fff"/>
    <path id="Trazado_11" data-name="Trazado 11" d="M419.615,3532.892h1.042a.624.624,0,0,0,.445-.191.666.666,0,0,0,0-.977.653.653,0,0,0-.488-.213h-1Zm0,4.227h-1.934v-7.52h2.933a2.612,2.612,0,0,1,1.847.765,2.612,2.612,0,0,1,0,3.7,1.451,1.451,0,0,1-.4.319l1.232,2.74h-2.1l-1.02-2.294h-.552Z" fill="#fff"/>
    <path id="Trazado_12" data-name="Trazado 12" d="M430.344,3532.148h-1.956a.767.767,0,0,0-.149-.3.57.57,0,0,0-.254-.171,1.682,1.682,0,0,0-.809-.149,1,1,0,0,0-.594.149,1.218,1.218,0,0,0-.4.4,1.993,1.993,0,0,0-.191.467,3.264,3.264,0,0,0-.105.829,2.888,2.888,0,0,0,.126.915,1.653,1.653,0,0,0,.318.573,1.236,1.236,0,0,0,.32.233,1.889,1.889,0,0,0,.616.15h.17c.658,0,1.062-.276,1.062-.808h-1.319v-1.4h3.316v.426a5.568,5.568,0,0,1-.148,1.466,3.06,3.06,0,0,1-.638,1.317,3.1,3.1,0,0,1-.829.637,3.482,3.482,0,0,1-1.423.3h-.021a1.857,1.857,0,0,1-.319-.021,3.3,3.3,0,0,1-1.508-.446,3.167,3.167,0,0,1-1.063-1.062,3.134,3.134,0,0,1-.4-.914,4.751,4.751,0,0,1-.17-1.36,5.111,5.111,0,0,1,.212-1.509,3.586,3.586,0,0,1,.765-1.316,2.627,2.627,0,0,1,.829-.615,2.892,2.892,0,0,1,1.4-.341,3.786,3.786,0,0,1,1.638.341,2.465,2.465,0,0,1,1.019.87,2,2,0,0,1,.34.616,2.8,2.8,0,0,1,.171.658Z" fill="#fff"/>
  </g>
</svg>
